<svg xmlns="http://www.w3.org/2000/svg" xmlns:xlink="http://www.w3.org/1999/xlink" width="90" height="90" viewBox="0 0 90 90">
    <defs>
        <radialGradient id="prefix__c" cx="50%" cy="23.901%" r="97.363%" fx="50%" fy="23.901%">
            <stop offset="0%" stop-color="#FFEE78"/>
            <stop offset="100%" stop-color="#FFEE78" stop-opacity="0"/>
        </radialGradient>
        <path id="prefix__a" d="M45 90c-12.02 0-23.32-4.68-31.82-13.18S0 57.02 0 45s4.68-23.32 13.18-31.82S32.98 0 45 0s23.32 4.68 31.82 13.18S90 32.98 90 45s-4.68 23.32-13.18 31.82S57.02 90 45 90z"/>
    </defs>
    <g fill="none" fill-rule="evenodd">
        <mask id="prefix__b" fill="#fff">
            <use xlink:href="#prefix__a"/>
        </mask>
        <use fill="#FCD232" fill-rule="nonzero" xlink:href="#prefix__a"/>
        <g fill-rule="nonzero" mask="url(#prefix__b)">
            <g transform="translate(-1.8 -1.8)">
                <circle cx="46.8" cy="46.8" r="46.8" fill="url(#prefix__c)" opacity=".752"/>
                <path fill="#F69E3A" d="M57.448 45.464c.982-1.272 1.568-2.883 1.56-4.636-.02-4.128-3.31-7.502-7.335-7.521l-.773-.004-.012-2.447c-.005-1.109-.874-2.012-1.941-2.017-1.067-.005-1.928.89-1.923 1.998l.011 2.447-4.263-.02-.011-2.447c-.005-1.109-.874-2.012-1.942-2.017-1.067-.005-1.928.89-1.923 1.998l.012 2.447-5.485-.026c-1.067-.005-1.928.89-1.923 1.998.005 1.109.874 2.012 1.942 2.017l3.142.015.088 18.895-3.142-.015c-1.068-.006-1.929.889-1.923 1.998.005 1.108.874 2.011 1.941 2.017l5.485.026.01 2.078c.005 1.109.874 2.012 1.941 2.017 1.067.005 1.928-.89 1.923-1.998l-.01-2.078 4.263.02.01 2.078c.005 1.11.874 2.012 1.942 2.017 1.067.005 1.928-.89 1.923-1.998l-.01-2.078 2.432.011c4.294.021 7.771-3.544 7.75-7.946-.012-2.786-1.423-5.25-3.545-6.688l-.214-.14zm-5.757-8.143c1.894.01 3.443 1.574 3.452 3.488.008 1.914-1.525 3.463-3.42 3.454l-11.242-.054-.032-6.942 11.242.054zm1.747 18.903l-12.901-.062-.037-7.938 12.901.062c2.163.01 3.932 1.8 3.942 3.988.01 2.124-1.64 3.856-3.715 3.947l-.19.003z"/>
            </g>
        </g>
    </g>
</svg>
