<svg id="Capa_1" data-name="Capa 1" xmlns="http://www.w3.org/2000/svg" xmlns:xlink="http://www.w3.org/1999/xlink" viewBox="0 0 157.98 41.06"><defs><style>.cls-1,.cls-2{fill:none;}.cls-2{clip-rule:evenodd;}.cls-3{clip-path:url(#clip-path);}.cls-4{clip-path:url(#clip-path-2);}.cls-5{fill:#80ca6e;}.cls-6{clip-path:url(#clip-path-3);}.cls-7{clip-path:url(#clip-path-5);}.cls-8{clip-path:url(#clip-path-7);}.cls-9{fill:#fff;}.cls-10{clip-path:url(#clip-path-9);}.cls-11{clip-path:url(#clip-path-11);}.cls-12{clip-path:url(#clip-path-13);}.cls-13{clip-path:url(#clip-path-15);}.cls-14{clip-path:url(#clip-path-17);}.cls-15{isolation:isolate;}.cls-16{clip-path:url(#clip-path-19);}.cls-17{clip-path:url(#clip-path-20);}</style><clipPath id="clip-path" transform="translate(5 5)"><rect class="cls-1" y="5.38" width="6.42" height="14.45"/></clipPath><clipPath id="clip-path-2" transform="translate(5 5)"><rect class="cls-1" x="-405" y="-492" width="1440" height="1024"/></clipPath><clipPath id="clip-path-3" transform="translate(5 5)"><rect class="cls-1" x="19.27" width="6.42" height="19.83"/></clipPath><clipPath id="clip-path-5" transform="translate(5 5)"><rect class="cls-1" x="9.63" y="13.4" width="6.42" height="17.66"/></clipPath><clipPath id="clip-path-7" transform="translate(5 5)"><path class="cls-2" d="M43.27,13.48H37.58v6.94A12.38,12.38,0,0,0,37.67,22a3,3,0,0,0,.39,1.22A2,2,0,0,0,39,24a4.26,4.26,0,0,0,1.66.27,11.38,11.38,0,0,0,1.36-.1,2.28,2.28,0,0,0,1.27-.5V29a9.46,9.46,0,0,1-2.24.51,19.91,19.91,0,0,1-2.29.13,12.38,12.38,0,0,1-3-.34,6.9,6.9,0,0,1-2.41-1.09,5,5,0,0,1-1.61-1.95,6.61,6.61,0,0,1-.59-2.92V2.16h6.46V8.33h5.69Z"/></clipPath><clipPath id="clip-path-9" transform="translate(5 5)"><path class="cls-2" d="M59.67,26.54h-.09a6,6,0,0,1-2.86,2.4,10.12,10.12,0,0,1-6.59.33A7.22,7.22,0,0,1,47.74,28a5.81,5.81,0,0,1-1.63-2,6.15,6.15,0,0,1-.61-2.78,6.45,6.45,0,0,1,.67-3.05A6,6,0,0,1,48,18.15a8.8,8.8,0,0,1,2.61-1.27,18.52,18.52,0,0,1,3-.66A30.43,30.43,0,0,1,56.76,16c1.05,0,2,0,2.91,0a3.33,3.33,0,0,0-1.23-2.72,4.42,4.42,0,0,0-2.9-1,6.27,6.27,0,0,0-2.91.67,7.84,7.84,0,0,0-2.35,1.82l-3.44-3.52a11.82,11.82,0,0,1,4.22-2.5,15.07,15.07,0,0,1,5-.84,13.17,13.17,0,0,1,4.68.71,6.7,6.7,0,0,1,2.92,2.08A7.88,7.88,0,0,1,65.18,14a21.78,21.78,0,0,1,.43,4.61V29.16H59.67ZM58.08,20c-.49,0-1.1,0-1.83.07a9.13,9.13,0,0,0-2.11.36,4.62,4.62,0,0,0-1.72.9A2.05,2.05,0,0,0,51.71,23a1.84,1.84,0,0,0,1,1.72,4.13,4.13,0,0,0,2.06.55A6.23,6.23,0,0,0,56.59,25a5.51,5.51,0,0,0,1.57-.72,3.61,3.61,0,0,0,1.1-1.2,3.5,3.5,0,0,0,.41-1.72V20Z"/></clipPath><clipPath id="clip-path-11" transform="translate(5 5)"><path class="cls-2" d="M88.09,29.16h-6.2V26.33H81.8a7.05,7.05,0,0,1-.88,1.2,5.82,5.82,0,0,1-1.31,1.07,7.51,7.51,0,0,1-1.77.77,7.4,7.4,0,0,1-2.15.3,9.1,9.1,0,0,1-4-.75,5.75,5.75,0,0,1-2.36-2.07,8,8,0,0,1-1.12-3.13,25,25,0,0,1-.28-3.9V8.33H74.4v10.2c0,.6,0,1.22.06,1.87a5.58,5.58,0,0,0,.39,1.77,2.94,2.94,0,0,0,1,1.33,3,3,0,0,0,1.91.52,4,4,0,0,0,2-.45A3.09,3.09,0,0,0,81,22.37a5.08,5.08,0,0,0,.54-1.69,14,14,0,0,0,.13-2V8.33h6.46Z"/></clipPath><clipPath id="clip-path-13" transform="translate(5 5)"><path class="cls-2" d="M90.93,8.33h6.46v3.35h.08a8,8,0,0,1,2.46-2.9,6.25,6.25,0,0,1,3.57-1c.37,0,.75,0,1.12,0a6.15,6.15,0,0,1,1,.17V13.9a11.94,11.94,0,0,0-1.35-.32,9,9,0,0,0-1.4-.1A6.94,6.94,0,0,0,100,14a3.84,3.84,0,0,0-1.66,1.44,5.46,5.46,0,0,0-.75,2.2,20.6,20.6,0,0,0-.17,2.83v8.7H90.93Z"/></clipPath><clipPath id="clip-path-15" transform="translate(5 5)"><path class="cls-2" d="M106,18.75a10.74,10.74,0,0,1,.91-4.5,10.33,10.33,0,0,1,2.47-3.45,11,11,0,0,1,3.7-2.21,13.8,13.8,0,0,1,9.09,0,11,11,0,0,1,3.7,2.21,10.36,10.36,0,0,1,2.48,3.45,10.89,10.89,0,0,1,.9,4.5,11,11,0,0,1-.9,4.5,10.22,10.22,0,0,1-2.48,3.44,10.85,10.85,0,0,1-3.7,2.21,13.8,13.8,0,0,1-9.09,0,10.85,10.85,0,0,1-3.7-2.21A10.19,10.19,0,0,1,107,23.25a10.8,10.8,0,0,1-.91-4.5m6.46,0a5.34,5.34,0,0,0,1.36,3.81,5.7,5.7,0,0,0,7.62,0,5.38,5.38,0,0,0,1.35-3.81,5.4,5.4,0,0,0-1.35-3.82,5.73,5.73,0,0,0-7.62,0,5.37,5.37,0,0,0-1.36,3.82"/></clipPath><clipPath id="clip-path-17" transform="translate(5 5)"><rect class="cls-1" x="130.11" y="7.82" width="17.87" height="21.85"/></clipPath><clipPath id="clip-path-19" transform="translate(5 5)"><rect class="cls-1" x="130" y="7" width="18" height="23"/></clipPath><clipPath id="clip-path-20" transform="translate(5 5)"><path class="cls-2" d="M143.2,14.46a4.59,4.59,0,0,0-3.75-1.75,3.51,3.51,0,0,0-1.59.38,1.36,1.36,0,0,0-.77,1.33,1.18,1.18,0,0,0,.79,1.13,10.35,10.35,0,0,0,2,.65l2.62.6a10.07,10.07,0,0,1,2.63,1,5.83,5.83,0,0,1,2,1.87,5.52,5.52,0,0,1,.8,3.15,5.88,5.88,0,0,1-.88,3.32,6.88,6.88,0,0,1-2.26,2.1,9.69,9.69,0,0,1-3.1,1.11,18.12,18.12,0,0,1-3.41.32,16.27,16.27,0,0,1-4.43-.62,8.24,8.24,0,0,1-3.79-2.21L134,22.52a6.56,6.56,0,0,0,2,1.69,5.37,5.37,0,0,0,2.56.58,6.18,6.18,0,0,0,2-.32,1.19,1.19,0,0,0,.9-1.18,1.31,1.31,0,0,0-.8-1.22,8.93,8.93,0,0,0-2-.69l-2.63-.6a10.66,10.66,0,0,1-2.62-1,5.54,5.54,0,0,1-2-1.82,5.57,5.57,0,0,1-.79-3.15,6.33,6.33,0,0,1,.75-3.17,6.51,6.51,0,0,1,2-2.19,8.62,8.62,0,0,1,2.82-1.26,13.06,13.06,0,0,1,3.23-.41,15.25,15.25,0,0,1,4.18.6,7.78,7.78,0,0,1,3.57,2.14Z"/></clipPath></defs><title>tauros-logo-x1</title><g class="cls-3"><g class="cls-4"><rect class="cls-5" y="5.38" width="16.42" height="24.45"/></g></g><g class="cls-6"><g class="cls-4"><rect class="cls-5" x="19.27" width="16.42" height="29.83"/></g></g><g class="cls-7"><g class="cls-4"><rect class="cls-5" x="9.63" y="13.4" width="16.42" height="27.66"/></g></g><g class="cls-8"><g class="cls-4"><rect class="cls-9" x="31.12" y="2.16" width="22.14" height="37.51"/></g></g><g class="cls-10"><g class="cls-4"><rect class="cls-9" x="45.5" y="7.82" width="30.11" height="31.85"/></g></g><g class="cls-11"><g class="cls-4"><rect class="cls-9" x="67.94" y="8.33" width="30.15" height="31.34"/></g></g><g class="cls-12"><g class="cls-4"><rect class="cls-9" x="90.93" y="7.82" width="24.73" height="31.34"/></g></g><g class="cls-13"><g class="cls-4"><rect class="cls-9" x="106.04" y="7.82" width="33.25" height="31.85"/></g></g><g class="cls-14"><g class="cls-4"><g class="cls-15"><g class="cls-16"><g class="cls-17"><g class="cls-16"><rect class="cls-9" x="130.11" y="7.82" width="27.87" height="31.85"/></g></g></g></g></g></g></svg>